HIERARCHY
ROOT Hip
{
	OFFSET -0.063275 -0.105515 0.257189
	CHANNELS 6 Xposition Yposition Zposition Xrotation Yrotation Zrotation
	JOINT LowerSpine
	{
		OFFSET -0.010109 0.155079 0.259446
		CHANNELS 6 Xposition Yposition Zposition Xrotation Yrotation Zrotation
		JOINT MiddleSpine
		{
			OFFSET -0.009529 -0.010798 0.236979
			CHANNELS 3 Xrotation Yrotation Zrotation
			JOINT Chest
			{
				OFFSET -0.011646 0.059224 0.293129
				CHANNELS 3 Xrotation Yrotation Zrotation
				JOINT Neck
				{
					OFFSET -0.026483 0.013363 0.660729
					CHANNELS 6 Xposition Yposition Zposition Xrotation Yrotation Zrotation
					JOINT Head
					{
						OFFSET -0.015175 -0.101015 0.373276
						CHANNELS 3 Xrotation Yrotation Zrotation
						End Site
						{
							OFFSET -0.002153 -0.001521 0.053588
						}
					}
				}
				JOINT LClavicle
				{
					OFFSET 0.034063 -0.195939 0.640341
					CHANNELS 6 Xposition Yposition Zposition Xrotation Yrotation Zrotation
					JOINT LShoulder
					{
						OFFSET 0.347371 0.147571 0.105324
						CHANNELS 3 Xrotation Yrotation Zrotation
						JOINT LForearm
						{
							OFFSET 0.827965 0.005572 0.030268
							CHANNELS 3 Xrotation Yrotation Zrotation
							JOINT LHand
							{
								OFFSET 0.690515 0.002807 0.029704
								CHANNELS 3 Xrotation Yrotation Zrotation
								JOINT LFinger1
								{
									OFFSET 0.266564 -0.074882 0.034252
									CHANNELS 6 Xposition Yposition Zposition Xrotation Yrotation Zrotation
									JOINT LFinger11
									{
										OFFSET 0.101058 -0.017884 -0.020372
										CHANNELS 3 Xrotation Yrotation Zrotation
										JOINT LFinger12
										{
											OFFSET 0.068991 -0.012214 -0.013910
											CHANNELS 3 Xrotation Yrotation Zrotation
											End Site
											{
												OFFSET 0.051352 -0.008362 -0.013103
											}
										}
									}
								}
								JOINT LFinger2
								{
									OFFSET 0.270550 -0.006962 0.037940
									CHANNELS 6 Xposition Yposition Zposition Xrotation Yrotation Zrotation
									JOINT LFinger21
									{
										OFFSET 0.123774 0.000492 0.005309
										CHANNELS 3 Xrotation Yrotation Zrotation
										JOINT LFinger22
										{
											OFFSET 0.068607 0.000285 0.002962
											CHANNELS 3 Xrotation Yrotation Zrotation
											End Site
											{
												OFFSET 0.053627 -0.000182 -0.001632
											}
										}
									}
								}
								JOINT LFinger3
								{
									OFFSET 0.256841 0.060484 0.028282
									CHANNELS 6 Xposition Yposition Zposition Xrotation Yrotation Zrotation
									JOINT LFinger31
									{
										OFFSET 0.112566 0.006813 -0.001191
										CHANNELS 3 Xrotation Yrotation Zrotation
										JOINT LFinger32
										{
											OFFSET 0.064144 0.003895 -0.000658
											CHANNELS 3 Xrotation Yrotation Zrotation
											End Site
											{
												OFFSET 0.053417 0.002401 -0.004406
											}
										}
									}
								}
								JOINT LFinger4
								{
									OFFSET 0.239835 0.104779 -0.008719
									CHANNELS 6 Xposition Yposition Zposition Xrotation Yrotation Zrotation
									JOINT LFinger41
									{
										OFFSET 0.069706 0.018932 -0.011663
										CHANNELS 3 Xrotation Yrotation Zrotation
										JOINT LFinger42
										{
											OFFSET 0.051116 0.013892 -0.008538
											CHANNELS 3 Xrotation Yrotation Zrotation
											End Site
											{
												OFFSET 0.051052 0.011472 -0.011859
											}
										}
									}
								}
								JOINT LFinger0
								{
									OFFSET 0.056965 -0.042178 -0.039627
									CHANNELS 6 Xposition Yposition Zposition Xrotation Yrotation Zrotation
									JOINT LFinger01
									{
										OFFSET 0.104289 -0.078034 -0.029607
										CHANNELS 3 Xrotation Yrotation Zrotation
										JOINT LFinger02
										{
											OFFSET 0.068756 -0.049112 -0.021497
											CHANNELS 3 Xrotation Yrotation Zrotation
											End Site
											{
												OFFSET 0.043080 -0.029263 -0.012899
											}
										}
									}
								}
							}
						}
					}
				}
				JOINT RClavicle
				{
					OFFSET -0.086011 -0.195706 0.635523
					CHANNELS 6 Xposition Yposition Zposition Xrotation Yrotation Zrotation
					JOINT RShoulder
					{
						OFFSET -0.354181 0.148955 0.077193
						CHANNELS 3 Xrotation Yrotation Zrotation
						JOINT RForearm
						{
							OFFSET -0.827701 0.008778 -0.036160
							CHANNELS 3 Xrotation Yrotation Zrotation
							JOINT RHand
							{
								OFFSET -0.690659 0.005482 -0.025711
								CHANNELS 3 Xrotation Yrotation Zrotation
								JOINT RFinger1
								{
									OFFSET -0.268742 -0.073845 0.012777
									CHANNELS 6 Xposition Yposition Zposition Xrotation Yrotation Zrotation
									JOINT RFinger11
									{
										OFFSET -0.099170 -0.017497 -0.028405
										CHANNELS 3 Xrotation Yrotation Zrotation
										JOINT RFinger12
										{
											OFFSET -0.067702 -0.011949 -0.019400
											CHANNELS 3 Xrotation Yrotation Zrotation
											End Site
											{
												OFFSET -0.050169 -0.008165 -0.017177
											}
										}
									}
								}
								JOINT RFinger2
								{
									OFFSET -0.272744 -0.005913 0.016142
									CHANNELS 6 Xposition Yposition Zposition Xrotation Yrotation Zrotation
									JOINT RFinger21
									{
										OFFSET -0.123799 0.000971 -0.004621
										CHANNELS 3 Xrotation Yrotation Zrotation
										JOINT RFinger22
										{
											OFFSET -0.068622 0.000553 -0.002544
											CHANNELS 3 Xrotation Yrotation Zrotation
											End Site
											{
												OFFSET -0.053325 0.000025 -0.005923
											}
										}
									}
								}
								JOINT RFinger3
								{
									OFFSET -0.258045 0.061481 0.007627
									CHANNELS 6 Xposition Yposition Zposition Xrotation Yrotation Zrotation
									JOINT RFinger31
									{
										OFFSET -0.112082 0.007248 -0.010204
										CHANNELS 3 Xrotation Yrotation Zrotation
										JOINT RFinger32
										{
											OFFSET -0.063872 0.004143 -0.005794
											CHANNELS 3 Xrotation Yrotation Zrotation
											End Site
											{
												OFFSET -0.052883 0.002607 -0.008671
											}
										}
									}
								}
								JOINT RFinger4
								{
									OFFSET -0.237958 0.105704 -0.027888
									CHANNELS 6 Xposition Yposition Zposition Xrotation Yrotation Zrotation
									JOINT RFinger41
									{
										OFFSET -0.068474 0.019200 -0.017207
										CHANNELS 3 Xrotation Yrotation Zrotation
										JOINT RFinger42
										{
											OFFSET -0.050213 0.014088 -0.012600
											CHANNELS 3 Xrotation Yrotation Zrotation
											End Site
											{
												OFFSET -0.049894 0.011668 -0.015909
											}
										}
									}
								}
								JOINT RFinger0
								{
									OFFSET -0.053770 -0.041961 -0.044067
									CHANNELS 6 Xposition Yposition Zposition Xrotation Yrotation Zrotation
									JOINT RFinger01
									{
										OFFSET -0.101882 -0.077637 -0.037884
										CHANNELS 3 Xrotation Yrotation Zrotation
										JOINT RFinger02
										{
											OFFSET -0.067002 -0.048849 -0.026942
											CHANNELS 3 Xrotation Yrotation Zrotation
											End Site
											{
												OFFSET -0.042021 -0.029098 -0.016314
											}
										}
									}
								}
							}
						}
					}
				}
			}
		}
	}
	JOINT RThigh
	{
		OFFSET -0.311672 0.025976 0.105021
		CHANNELS 6 Xposition Yposition Zposition Xrotation Yrotation Zrotation
		JOINT RShin
		{
			OFFSET 0.026242 -0.001762 -1.209087
			CHANNELS 3 Xrotation Yrotation Zrotation
			JOINT RFoot
			{
				OFFSET 0.047595 -0.001772 -1.186376
				CHANNELS 3 Xrotation Yrotation Zrotation
				JOINT RToe
				{
					OFFSET 0.004687 -0.273082 -0.130006
					CHANNELS 3 Xrotation Yrotation Zrotation
					End Site
					{
						OFFSET -0.000107 -0.053652 0.000076
					}
				}
			}
		}
	}
	JOINT LThigh
	{
		OFFSET 0.302351 0.024786 0.129664
		CHANNELS 6 Xposition Yposition Zposition Xrotation Yrotation Zrotation
		JOINT LShin
		{
			OFFSET 0.070699 -0.001848 -1.207312
			CHANNELS 3 Xrotation Yrotation Zrotation
			JOINT LFoot
			{
				OFFSET 0.047595 -0.001772 -1.186376
				CHANNELS 3 Xrotation Yrotation Zrotation
				JOINT LToe
				{
					OFFSET 0.004687 -0.273085 -0.130008
					CHANNELS 3 Xrotation Yrotation Zrotation
					End Site
					{
						OFFSET -0.000107 -0.053652 0.000076
					}
				}
			}
		}
	}
}
MOTION
Frames: 4
Frame Time: 0.041667
-0.557399 0.157204 2.268950 7.492857 -33.261317 -79.737500 -0.010109 0.155079 0.259446 0.000009 -0.000026 -0.000003 -3.501539 -1.097699 -0.031801 -16.177327 -3.026988 8.980812 -0.026483 0.013363 0.660729 -15.353222 13.492596 5.073665 -2.663648 0.015621 -0.106248 0.034063 -0.195939 0.640341 -2.263238 6.459741 -0.236304 -1.031572 -7.067318 27.359696 0.149939 -0.008414 -3.562023 -0.000003 -0.000001 -0.000004 0.266564 -0.074882 0.034252 -0.000004 0.000015 -0.000008 0.000004 -0.000005 0.000021 0.000001 -0.000007 -0.000034 0.270549 -0.006962 0.037940 -0.000005 0.000017 -0.000005 -0.000003 0.000002 -0.000011 -0.000002 0.000006 -0.000012 0.256841 0.060484 0.028282 -0.000006 0.000014 -0.000008 0.000001 0.000010 0.000001 0.000001 -0.000005 0.000009 0.239835 0.104779 -0.008718 -0.000002 0.000009 -0.000007 -0.000016 -0.000002 -0.000013 0.000000 -0.000006 0.000005 0.056965 -0.042178 -0.039627 -0.000007 0.000019 -0.000020 -0.000008 -0.000008 0.000016 0.000003 -0.000009 -0.000029 -0.086011 -0.195706 0.635525 1.585945 1.594866 4.494045 2.453111 17.712701 14.885332 0.018010 0.003317 -0.553653 0.000001 -0.000001 0.000001 -0.268742 -0.073845 0.012777 0.000007 0.000000 0.000016 0.000001 -0.000002 0.000004 0.000004 -0.000003 0.000005 -0.272745 -0.005912 0.016142 0.000003 0.000018 0.000007 0.000000 -0.000003 -0.000009 -0.000000 0.000005 0.000011 -0.258045 0.061482 0.007627 -0.000001 0.000013 0.000008 -0.000001 -0.000004 -0.000003 -0.000001 0.000016 -0.000004 -0.237959 0.105704 -0.027889 -0.000001 0.000010 0.000017 -0.000001 -0.000003 0.000015 0.000009 -0.000003 -0.000009 -0.053770 -0.041960 -0.044067 0.000004 0.000015 0.000008 -0.000018 -0.000006 0.000001 -0.000000 -0.000009 0.000013 -0.310502 0.032729 0.038454 -44.122179 -15.968518 -21.273888 24.963062 0.167928 0.980553 4.373575 8.609039 -19.778753 -12.421556 0.077597 -0.490819 0.293895 0.035611 0.159521 -9.469682 -24.546614 3.908875 19.107574 0.090315 0.758611 2.101028 1.368540 -2.937736 -29.435240 0.350696 -1.113049 
-0.565367 0.180040 2.279166 13.212068 -30.967917 -68.172296 -0.010109 0.155079 0.259446 0.000004 -0.000027 -0.000003 -3.744271 -1.166079 0.068742 -16.204810 -3.040161 8.747621 -0.026483 0.013363 0.660729 -14.988278 13.294335 4.954511 -2.646638 0.201398 -0.095942 0.034063 -0.195938 0.640341 -2.291624 6.537965 -0.237702 -1.003515 -6.441119 29.856813 0.167540 -0.012988 -3.972865 -0.000004 -0.000001 -0.000010 0.266564 -0.074882 0.034253 -0.000000 0.000015 -0.000009 0.000008 -0.000004 0.000020 -0.000005 -0.000012 -0.000033 0.270549 -0.006962 0.037940 -0.000004 0.000017 -0.000012 -0.000003 0.000004 -0.000018 -0.000003 0.000004 -0.000010 0.256841 0.060484 0.028282 -0.000004 0.000014 -0.000008 0.000001 0.000010 0.000010 0.000000 -0.000005 0.000010 0.239835 0.104779 -0.008718 -0.000001 0.000009 -0.000010 -0.000013 -0.000001 -0.000012 -0.000000 -0.000003 0.000001 0.056964 -0.042178 -0.039627 -0.000009 0.000019 -0.000026 -0.000013 0.000000 0.000021 0.000003 -0.000004 -0.000024 -0.086011 -0.195706 0.635524 0.889589 0.645735 2.472427 1.728322 18.487498 12.807721 0.036545 -0.000671 -1.059767 -0.000001 0.000001 0.000002 -0.268742 -0.073845 0.012778 0.000004 0.000000 0.000013 -0.000001 -0.000003 0.000005 0.000004 -0.000004 0.000011 -0.272746 -0.005913 0.016143 -0.000001 0.000017 0.000008 0.000003 -0.000002 -0.000008 -0.000003 0.000002 0.000007 -0.258046 0.061481 0.007627 -0.000002 0.000013 0.000003 0.000001 -0.000005 -0.000001 -0.000001 0.000016 0.000000 -0.237959 0.105704 -0.027889 -0.000004 0.000008 0.000015 -0.000001 -0.000003 0.000016 0.000008 -0.000005 -0.000009 -0.053771 -0.041961 -0.044066 0.000003 0.000015 0.000006 -0.000023 -0.000009 -0.000007 -0.000001 -0.000012 0.000005 -0.310502 0.032729 0.038454 -42.593319 -16.188790 -19.969834 21.605705 0.120656 0.854258 1.139283 7.455353 -16.085522 -7.384543 0.033314 -0.293903 0.293984 0.035469 0.158727 -8.932255 -21.155813 3.783073 20.714502 0.109345 0.820293 2.925119 2.014182 -4.411888 -34.146708 0.457813 -1.268562 
-0.580818 0.185257 2.289311 17.689538 -27.653189 -57.564097 -0.010109 0.155079 0.259446 0.000007 -0.000028 -0.000004 -3.978194 -1.248030 0.148744 -16.262013 -3.058814 8.689181 -0.026483 0.013363 0.660729 -14.686954 13.110170 4.848735 -2.623775 0.404784 -0.084561 0.034063 -0.195939 0.640341 -2.331813 6.649196 -0.239585 -0.895148 -5.180719 31.685623 0.165995 -0.012891 -3.930542 -0.000004 0.000001 -0.000013 0.266564 -0.074882 0.034252 -0.000004 0.000015 -0.000010 0.000004 -0.000004 0.000013 -0.000000 -0.000010 -0.000034 0.270549 -0.006962 0.037940 -0.000004 0.000017 -0.000008 -0.000005 0.000004 -0.000014 -0.000003 0.000006 -0.000008 0.256841 0.060484 0.028283 -0.000005 0.000014 -0.000008 0.000000 0.000010 0.000008 0.000001 -0.000008 0.000009 0.239835 0.104779 -0.008719 0.000001 0.000009 -0.000007 -0.000016 0.000000 -0.000010 -0.000001 -0.000005 0.000007 0.056964 -0.042178 -0.039627 -0.000005 0.000018 -0.000024 -0.000013 -0.000005 0.000022 0.000002 -0.000008 -0.000024 -0.086010 -0.195706 0.635524 0.410723 0.031591 1.128813 1.179334 19.045723 10.327720 0.044419 -0.002454 -1.278311 -0.000002 0.000000 -0.000001 -0.268742 -0.073845 0.012778 0.000007 0.000002 0.000013 -0.000003 -0.000002 -0.000003 0.000003 -0.000005 0.000001 -0.272745 -0.005913 0.016143 0.000001 0.000019 0.000008 0.000002 -0.000001 -0.000007 0.000001 0.000002 0.000011 -0.258046 0.061481 0.007627 0.000001 0.000015 0.000013 -0.000000 -0.000004 -0.000006 -0.000003 0.000016 -0.000003 -0.237959 0.105704 -0.027889 -0.000002 0.000012 0.000016 -0.000002 -0.000004 0.000015 0.000007 -0.000004 -0.000014 -0.053771 -0.041960 -0.044066 0.000004 0.000016 0.000009 -0.000021 -0.000012 0.000002 0.000002 -0.000012 0.000006 -0.310502 0.032729 0.038454 -40.376042 -15.683612 -20.128083 18.538107 0.084000 0.736624 -2.796688 5.877744 -11.741773 -2.963492 0.008832 -0.118443 0.294073 0.035326 0.157933 -7.896038 -16.897784 3.517595 21.664865 0.121409 0.856511 3.419533 2.269999 -5.032630 -37.020728 0.529304 -1.358914 
-0.611893 0.196887 2.300108 21.512949 -23.253060 -46.809335 -0.010109 0.155079 0.259446 0.000005 -0.000025 -0.000004 -4.201580 -1.342021 0.209372 -16.318693 -3.076150 8.630140 -0.026483 0.013363 0.660729 -14.273969 12.795598 4.679462 -2.594574 0.623165 -0.072269 0.034063 -0.195939 0.640341 -2.382468 6.789815 -0.241828 -0.737388 -3.555935 32.287021 0.137072 -0.007837 -3.241935 -0.000003 -0.000001 -0.000010 0.266564 -0.074882 0.034252 -0.000003 0.000015 -0.000012 0.000004 -0.000006 0.000018 -0.000001 -0.000009 -0.000035 0.270549 -0.006962 0.037939 -0.000003 0.000017 -0.000009 -0.000004 0.000003 -0.000015 -0.000003 0.000007 -0.000008 0.256841 0.060484 0.028282 -0.000004 0.000015 -0.000009 -0.000000 0.000011 0.000005 0.000001 -0.000007 0.000010 0.239835 0.104779 -0.008719 0.000000 0.000010 -0.000009 -0.000013 0.000000 -0.000011 0.000000 -0.000005 0.000006 0.056965 -0.042178 -0.039628 -0.000005 0.000022 -0.000026 -0.000009 -0.000003 0.000026 -0.000000 -0.000007 -0.000027 -0.086011 -0.195706 0.635524 0.146337 -0.295137 0.401557 1.277544 18.997833 5.936843 0.027166 -0.001438 -0.818581 0.000001 0.000002 0.000005 -0.268741 -0.073845 0.012778 0.000006 0.000001 0.000016 -0.000001 -0.000004 0.000001 -0.000000 -0.000005 0.000001 -0.272745 -0.005913 0.016143 0.000003 0.000019 0.000011 0.000002 -0.000001 0.000001 -0.000001 0.000005 0.000012 -0.258045 0.061481 0.007627 0.000001 0.000015 0.000008 0.000004 -0.000002 -0.000003 -0.000003 0.000014 -0.000008 -0.237959 0.105704 -0.027889 -0.000000 0.000010 0.000015 0.000000 -0.000004 0.000012 0.000007 -0.000004 -0.000016 -0.053770 -0.041961 -0.044067 0.000006 0.000019 0.000005 -0.000015 -0.000007 0.000003 0.000003 -0.000008 0.000006 -0.310502 0.032729 0.038454 -37.882664 -15.310504 -18.897551 14.910895 0.048856 0.595249 -4.507545 3.204234 -6.218942 -0.675322 0.001493 -0.027031 0.294162 0.035184 0.157141 -7.620860 -12.708447 2.082839 23.474290 0.146043 0.924897 3.298994 2.281313 -5.047516 -38.246590 0.561162 -1.396343 
